<svg id="_x33_0" enable-background="new 0 0 64 64" height="512" viewBox="0 0 64 64" width="512" xmlns="http://www.w3.org/2000/svg"><g><g><g><path d="m50 49c-1.654 0-3-1.346-3-3s1.346-3 3-3 3 1.346 3 3-1.346 3-3 3z" fill="#f0bc5e"/></g></g><g><g><path d="m51 59c-1.654 0-3-1.346-3-3s1.346-3 3-3 3 1.346 3 3-1.346 3-3 3z" fill="#f0bc5e"/></g></g><g><path d="m45 56c0-1.263.783-2.34 1.889-2.782-.347-1.29-1.514-2.218-2.889-2.218-1.654 0-3 1.346-3 3s1.346 3 3 3c.384 0 .755-.098 1.109-.24-.064-.244-.109-.496-.109-.76z" fill="#f0bc5e"/></g><g><path d="m9 28h5v4h-5z" fill="#f0bc5e"/></g><g><path d="m50 28h5v4h-5z" fill="#f0bc5e"/></g><g><path d="m21 41v5 5h10v-5h4v-5z" fill="#f0bc5e"/></g><g><path d="m21 45h14v2h-14z"/><path d="m32 39c4.963 0 9-4.037 9-9s-4.037-9-9-9-9 4.037-9 9 4.037 9 9 9zm-3.823-3.144c.499-1.66 2.045-2.856 3.823-2.856s3.324 1.196 3.823 2.856c-1.101.721-2.413 1.144-3.823 1.144s-2.722-.423-3.823-1.144zm1.823-6.856c0-1.103.897-2 2-2s2 .897 2 2-.897 2-2 2-2-.897-2-2zm2-6c3.859 0 7 3.141 7 7 0 1.686-.6 3.235-1.597 4.445-.544-1.141-1.427-2.077-2.522-2.683.69-.719 1.119-1.69 1.119-2.762 0-2.206-1.794-4-4-4s-4 1.794-4 4c0 1.072.429 2.043 1.119 2.762-1.094.606-1.977 1.542-2.522 2.683-.997-1.21-1.597-2.759-1.597-4.445 0-3.859 3.141-7 7-7z"/><path d="m21 49h2v2h-2z"/><path d="m25 49h2v2h-2z"/><path d="m29 49h2v2h-2z"/><path d="m21 41h4v2h-4z"/><path d="m27 41h10v2h-10z"/><path d="m59 35v-14c0-6.617-5.383-12-12-12-2.853 0-5.572 1.013-7.737 2.844-1.354-.442-2.784-.706-4.263-.793v-.051h2c1.103 0 2-.897 2-2v-2c0-1.103-.897-2-2-2h-2v-2c0-1.103-.897-2-2-2h-2c-1.103 0-2 .897-2 2v2h-2c-1.103 0-2 .897-2 2v2c0 1.103.897 2 2 2h2v.051c-1.479.087-2.909.351-4.263.793-2.165-1.831-4.884-2.844-7.737-2.844-6.617 0-12 5.383-12 12v14c-2.206 0-4 1.794-4 4v2c0 1.103.897 2 2 2h10v10.35c-2.327.826-4 3.043-4 5.65v2c0 1.103.897 2 2 2h25.819 2.815 11.366c1.896 0 3.489-1.327 3.898-3.102 1.775-.409 3.102-2.002 3.102-3.898 0-.593-.142-1.149-.374-1.656 1.956-.972 3.147-2.701 3.206-2.789l.368-.553-.366-.554c-.074-.113-1.588-2.35-4.052-3.162.138-.404.218-.836.218-1.286 0-1.194-.527-2.266-1.36-3h5.36c1.103 0 2-.897 2-2v-2c0-2.206-1.794-4-4-4zm-12-24c5.514 0 10 4.486 10 10v14h-6v-2h4v-2h-4v-2h4v-2h-4.051c-.063-1.067-.222-2.106-.473-3.111 1.573-1.118 2.524-2.927 2.524-4.889 0-3.309-2.691-6-6-6-1.198 0-2.349.373-3.333 1.034-.715-.496-1.473-.928-2.261-1.312 1.643-1.114 3.578-1.722 5.594-1.722zm6 33c1.103 0 2 .897 2 2s-.897 2-2 2h-1v1c0 1.103-.897 2-2 2s-2-.897-2-2v-1h-1c-1.103 0-2-.897-2-2s.897-2 2-2h1v-1c0-1.103.897-2 2-2s2 .897 2 2v1zm-9 12c0 1.037.406 1.975 1.057 2.687-.313.196-.673.313-1.057.313-1.103 0-2-.897-2-2v-1h-1c-1.103 0-2-.897-2-2s.897-2 2-2h1v-1c0-1.103.897-2 2-2 .154 0 .302.034.45.068.473.394 1.032.688 1.651.831.172.745.561 1.403 1.085 1.925-.029.093-.064.184-.085.278-1.774.409-3.101 2.002-3.101 3.898zm-6.858-3h-18.142v-25c0-5.73 4.405-10.444 10.005-10.95.028 1.079.91 1.95 1.995 1.95h2c1.085 0 1.967-.871 1.995-1.95 5.6.506 10.005 5.22 10.005 10.95v11.928c-1.173-.531-2.78-.928-5-.928h-1v1c0 .227.041 4.9 2.743 7.716-.81.559-1.413 1.397-1.641 2.386-1.45.334-2.588 1.463-2.96 2.898zm5.858-7c0 .04.009.078.01.118-1.328-1.536-1.788-3.778-1.936-5.082 2.258.156 3.519.797 4.21 1.364-1.346.645-2.284 2.011-2.284 3.6zm2.345-30.625c.517-.236 1.076-.375 1.655-.375 2.206 0 4 1.794 4 4 0 1.081-.436 2.089-1.177 2.828-.976-2.492-2.521-4.693-4.478-6.453zm3.655 12.625v11.142c-.784.204-1.48.628-2 1.219v-12.361c0-6.83-5.299-12.435-12-12.949v-2c7.805.518 14 7.015 14 14.949zm-22-19v-2h4v-4h2v4h4v2h-4v8h-2v-8zm-20 12c0-5.514 4.486-10 10-10 2.016 0 3.951.608 5.594 1.721-.788.384-1.547.816-2.261 1.312-.984-.66-2.135-1.033-3.333-1.033-3.309 0-6 2.691-6 6 0 1.962.951 3.771 2.524 4.889-.251 1.006-.411 2.044-.473 3.111h-4.051v2h4v2h-4v2h4v2h-6zm7.177.828c-.741-.739-1.177-1.747-1.177-2.828 0-2.206 1.794-4 4-4 .579 0 1.138.139 1.655.375-1.957 1.76-3.502 3.961-4.478 6.453zm-11.177 19.172v-2c0-1.103.897-2 2-2h8v4zm12-13c0-7.934 6.195-14.431 14-14.949v2c-6.701.514-12 6.119-12 12.949v25h-2zm-4 33v-2c0-2.206 1.794-4 4-4h22.142c.215.826.679 1.546 1.318 2.075-.565.851-.954 1.808-1.123 2.828l-.184 1.097zm28.181 0 .128-.769c.128-.769.422-1.492.859-2.127.287.991.939 1.826 1.81 2.339-.724.358-1.524.557-2.343.557zm5.528-.07c.811-.145 1.55-.533 2.127-1.117.089.027.174.064.265.086.091.394.248.761.446 1.102h-2.911c.025-.024.049-.048.073-.071zm9.291-2.93h-1v1c0 1.103-.897 2-2 2s-2-.897-2-2v-1h-1c-1.103 0-2-.897-2-2s.897-2 2-2h1v-1c0-.046.014-.091.018-.137.316.081.641.137.982.137 1.037 0 1.975-.406 2.687-1.057.196.313.313.673.313 1.057v1h1c1.103 0 2 .897 2 2s-.897 2-2 2zm4.726-7.002c-.483.546-1.333 1.353-2.413 1.755-.421-.301-.894-.532-1.414-.652-.169-.738-.547-1.406-1.086-1.939.027-.089.064-.173.085-.264.63-.145 1.2-.446 1.678-.851 1.429.234 2.564 1.284 3.15 1.951zm2.274-9.998h-7.548c-.53-.911-1.408-1.587-2.452-1.858v-2.142h8c1.103 0 2 .897 2 2z"/></g></g></svg>