<svg id="Capa_1" enable-background="new 0 0 512 512" height="512" viewBox="0 0 512 512" width="512" xmlns="http://www.w3.org/2000/svg"><g><path d="m441.073 298.49-110.073-33.99 143.5 240h30v-120c0-40.455-26.693-74.675-63.427-86.01z" fill="#ffad84"/><path d="m422.04 298.49-91.04-33.99v-182h-150v182l-110.073 33.99c-36.734 11.335-63.427 45.554-63.427 86.01v120h75l15-60 15 60h287l15-60 15 60h45v-120c0-40.456-22.078-74.675-52.46-86.01z" fill="#ffd4a1"/><g fill="#ffad84"><path d="m414.5 399.5c-8.284 0-15 6.716-15 15v90h30v-90c0-8.284-6.716-15-15-15z"/><path d="m97.5 399.5c-8.284 0-15 6.716-15 15v90h30v-90c0-8.284-6.716-15-15-15z"/><path d="m128.5 7.5c-20.711 0-37.5 16.79-37.5 37.5 0 20.711 16.789 37.5 37.5 37.5h127.5v-75z"/></g><path d="m383.5 7.5h-127.5v75h127.5c20.711 0 37.5-16.789 37.5-37.5 0-20.71-16.789-37.5-37.5-37.5z" fill="#fe8566"/><path d="m346 7.5-90 195c66.274 0 120-53.726 120-120v-75z" fill="#ffad84"/><path d="m346 82.5v-75h-210v75c0 66.274 53.726 120 120 120 49.706 0 90-53.726 90-120z" fill="#ffd4a1"/><path d="m256 52.5c-24.853 0-45 20.147-45 45l.004.622c.059 4.34 1.474 8.201 3.779 11.316h82.434c2.305-3.115 3.72-6.976 3.779-11.316l.004-.622c0-24.853-20.147-45-45-45z" fill="#ff3a33"/><path d="m256 82.5c-18.427 0-34.258 11.081-41.217 26.939 5.198 7.025 14.939 10.239 23.979 6.484 5.309-2.205 11.131-3.423 17.238-3.423s11.93 1.218 17.238 3.423c9.039 3.755 18.781.541 23.979-6.484-6.959-15.858-22.79-26.939-41.217-26.939z" fill="#fe5e49"/><circle cx="256" cy="414.5" fill="#fe8566" r="60"/><path d="m256 384.5-15 32.163 15 27.837c16.569 0 30-13.431 30-30s-13.431-30-30-30z" fill="#ff3a33"/><path d="m226 414.5c0 16.569 13.431 30 30 30v-60c-16.569 0-30 13.431-30 30z" fill="#fe5e49"/><path d="m492.563 326.077c-12.292-16.398-29.792-28.74-49.277-34.753l-104.786-32.358v-79.34c25.73-21.889 42.684-53.792 44.773-89.627h.227c24.813 0 45-20.187 45-45s-20.187-45-45-45h-255c-24.813 0-45 20.187-45 45s20.187 45 45 45h.227c2.089 35.834 19.043 67.738 44.773 89.627v79.34l-104.784 32.357c-19.486 6.014-36.987 18.356-49.279 34.754-12.716 16.964-19.437 37.166-19.437 58.423v120c0 4.142 3.358 7.5 7.5 7.5h497c4.142 0 7.5-3.358 7.5-7.5v-120c0-21.257-6.721-41.459-19.437-58.423zm-349.063-243.577v-15c0-4.142-3.358-7.5-7.5-7.5s-7.5 3.358-7.5 7.5v7.5c-16.542 0-30-13.458-30-30s13.458-30 30-30v7.5c0 4.142 3.358 7.5 7.5 7.5s7.5-3.358 7.5-7.5v-7.5h225v7.5c0 4.142 3.358 7.5 7.5 7.5s7.5-3.358 7.5-7.5v-7.5c16.542 0 30 13.458 30 30s-13.458 30-30 30v-7.5c0-4.142-3.358-7.5-7.5-7.5s-7.5 3.358-7.5 7.5v15c0 62.033-50.467 112.5-112.5 112.5s-112.5-50.467-112.5-112.5zm353.5 414.5h-90v-82.5c0-4.136 3.364-7.5 7.5-7.5 4.142 0 7.5-3.358 7.5-7.5s-3.358-7.5-7.5-7.5c-12.407 0-22.5 10.093-22.5 22.5v82.5h-272v-82.5c0-12.407-10.093-22.5-22.5-22.5-4.142 0-7.5 3.358-7.5 7.5s3.358 7.5 7.5 7.5c4.136 0 7.5 3.364 7.5 7.5v82.5h-90v-112.5c0-36.428 23.364-68.113 58.14-78.845l110.073-33.989c3.143-.971 5.287-3.876 5.287-7.166v-73.883c19.589 12.274 42.728 19.383 67.5 19.383s47.911-7.109 67.5-19.383v73.883c0 3.29 2.144 6.195 5.287 7.166l110.074 33.99c34.775 10.731 58.139 42.416 58.139 78.844z"/><path d="m215.684 120.453c4.577 3.01 9.867 4.546 15.206 4.546 3.63 0 7.284-.71 10.749-2.15 4.551-1.891 9.383-2.849 14.361-2.849s9.81.958 14.361 2.849c8.562 3.557 18.265 2.66 25.955-2.396 7.504-4.936 12.057-13.246 12.18-22.278l.004-.675c0-28.949-23.551-52.5-52.5-52.5s-52.5 23.551-52.5 52.553l.005.671c.122 8.984 4.675 17.293 12.179 22.229zm40.316-60.453c20.678 0 37.5 16.822 37.5 37.447l-.004.574c-.055 4.061-2.031 7.669-5.423 9.899-3.526 2.32-7.995 2.723-11.958 1.076-6.384-2.651-13.152-3.996-20.115-3.996s-13.731 1.345-20.115 3.997c-3.962 1.646-8.432 1.244-11.958-1.076-3.392-2.23-5.368-5.838-5.422-9.851l-.005-.57c0-20.678 16.822-37.5 37.5-37.5z"/><path d="m256 377c-20.678 0-37.5 16.822-37.5 37.5s16.822 37.5 37.5 37.5 37.5-16.822 37.5-37.5-16.822-37.5-37.5-37.5zm0 60c-12.407 0-22.5-10.093-22.5-22.5s10.093-22.5 22.5-22.5 22.5 10.093 22.5 22.5-10.093 22.5-22.5 22.5z"/><path d="m256 347c-37.22 0-67.5 30.28-67.5 67.5s30.28 67.5 67.5 67.5 67.5-30.28 67.5-67.5-30.28-67.5-67.5-67.5zm0 120c-28.949 0-52.5-23.551-52.5-52.5s23.551-52.5 52.5-52.5 52.5 23.551 52.5 52.5-23.551 52.5-52.5 52.5z"/><path d="m173.5 414.5c0-4.142-3.358-7.5-7.5-7.5h-15c-4.142 0-7.5 3.358-7.5 7.5s3.358 7.5 7.5 7.5h15c4.142 0 7.5-3.358 7.5-7.5z"/><path d="m361 407h-15c-4.142 0-7.5 3.358-7.5 7.5s3.358 7.5 7.5 7.5h15c4.142 0 7.5-3.358 7.5-7.5s-3.358-7.5-7.5-7.5z"/><path d="m169.981 442.012-13.858 5.74c-3.827 1.585-5.644 5.972-4.059 9.799s5.972 5.644 9.799 4.059l13.858-5.74c3.827-1.585 5.644-5.972 4.059-9.799-1.585-3.826-5.973-5.644-9.799-4.059z"/><path d="m342.019 386.988 13.858-5.74c3.827-1.585 5.644-5.972 4.059-9.799s-5.972-5.644-9.799-4.059l-13.858 5.74c-3.827 1.585-5.644 5.972-4.059 9.799 1.585 3.826 5.973 5.644 9.799 4.059z"/><path d="m175.721 373.129-13.858-5.74c-3.827-1.585-8.214.232-9.799 4.059s.232 8.214 4.059 9.799l13.858 5.74c3.827 1.585 8.214-.232 9.799-4.059 1.585-3.826-.232-8.214-4.059-9.799z"/><path d="m355.878 447.753-13.858-5.74c-3.827-1.585-8.214.232-9.799 4.059s.232 8.214 4.059 9.799l13.858 5.74c3.827 1.585 8.214-.232 9.799-4.059s-.233-8.214-4.059-9.799z"/></g></svg>