<svg id="Capa_1" enable-background="new 0 0 512 512" height="512" viewBox="0 0 512 512" width="512" xmlns="http://www.w3.org/2000/svg"><g><path d="m307.899 331c-4.499-7.8-1.199-20.4 8.401-22.5 5.698-2.399 97.931-22.897 180.7-105.601l-21.094-29.914h-219.906-208.656l-32.344 29.914c85.499 85.5 177.7 104.101 180.7 105.601 5.7 1.199 8.101 5.4 9 8.099 2.1 4.501 1.8 10.201-.599 14.401l-13.2 22.5c-6.901 12.299-10.201 26.1-9.901 40.199 1.5 39.9 33.9 72.301 75 72.301 41.7 0 75-33.9 75-75 0-13.2-3.6-26.1-9.901-37.5z" fill="#b7e4f8"/><path d="m331 391c0-13.2-3.6-26.1-9.901-37.5l-13.2-22.5c-4.499-7.8-1.199-20.4 8.401-22.5 5.698-2.399 97.931-22.897 180.7-105.601l-21.094-29.914h-219.906v293.015c41.7 0 75-33.9 75-75z" fill="#6fc8f1"/><path d="m485.9 175.899c-.3 0-3.6-3.6-9.6-9.598-28.5-27.602-117.701-105.301-220.3-105.301s-191.8 77.699-220.3 105.3c-6 5.999-9.3 9.598-9.6 9.598l-11.1 27.001c43.914-7.875 100.346 6.136 135.7 24.6 36.3 18.901 71.7 28.501 105.3 28.501s69-9.6 105.601-28.5c71.757-37.769 132.395-24.102 135.399-24.6z" fill="#f3fbff"/><path d="m497 202.899-11.1-27.001c-.3 0-3.6-3.6-9.6-9.598-28.5-27.601-117.701-105.3-220.3-105.3v195c33.6 0 69-9.6 105.601-28.5 71.757-37.77 132.394-24.103 135.399-24.601z" fill="#e0f4fe"/><circle cx="256" cy="151" fill="#fd697f" r="105"/><path d="m361 151c0-57.891-47.109-105-105-105v210c57.891 0 105-47.109 105-105z" fill="#fc445f"/><circle cx="256" cy="151" fill="#704c55" r="45"/><path d="m301 151c0-24.814-20.186-45-45-45v90c24.814 0 45-20.186 45-45z" fill="#5a344b"/><path d="m508.177 170.995c-4.571-5.098-114.496-124.995-252.177-124.995s-247.606 119.897-252.177 124.995c-5.098 5.698-5.098 14.312 0 20.01.795.886 4.477 5.308 11.177 11.894l11.162-11.88c1.04-1.157 105.736-115.019 229.838-115.019s228.798 113.862 229.823 115.005l11.177 11.894c6.7-6.588 10.382-11.008 11.177-11.895 5.097-5.697 5.097-14.311 0-20.009z" fill="#704c55"/><path d="m485.823 191.005 11.177 11.894c6.7-6.588 10.382-11.008 11.177-11.895 5.098-5.698 5.098-14.312 0-20.01-4.571-5.097-114.496-124.994-252.177-124.994v30c124.102 0 228.798 113.862 229.823 115.005z" fill="#5a344b"/></g></svg>