<svg height="512" viewBox="0 0 128 128" width="512" xmlns="http://www.w3.org/2000/svg"><g id="Circle_Grid" data-name="Circle Grid"><circle cx="64" cy="64" fill="#ef5261" r="64"/></g><g id="icon"><path d="m89.314 94.014 8.2 10h-64.371a9.643 9.643 0 0 1 -9.643-9.638v-70.395h65.814v75.819" fill="#eeefee"/><path d="m89.314 60.866h15.186a0 0 0 0 1 0 0v35.559a7.593 7.593 0 0 1 -7.593 7.593 7.593 7.593 0 0 1 -7.593-7.593v-35.559a0 0 0 0 1 0 0z" fill="#dbd8dd"/><path d="m44.88 39.074h-1.28l-4.957-7.467v7.467h-1.192v-9.461h1.278l4.957 7.467v-7.467h1.194z" fill="#2cbfae"/><path d="m54.051 39.074h-7.051v-9.461h6.835v1.123h-5.586v2.891h5.221v1.123h-5.221v3.2h5.8z" fill="#2cbfae"/><path d="m67.1 29.613-2.62 9.462h-1.2l-2.272-8.222-2.278 8.221h-1.2l-2.614-9.462h1.317l1.891 7.706 2.13-7.706h1.5l2.13 7.706 1.891-7.706z" fill="#2cbfae"/><path d="m71.858 39.236a4.335 4.335 0 0 1 -2.991-.9 3.133 3.133 0 0 1 -1.042-2.3h1.207a1.961 1.961 0 0 0 .881 1.565 3.416 3.416 0 0 0 1.894.507 2.983 2.983 0 0 0 1.694-.432 1.347 1.347 0 0 0 .642-1.175 1.2 1.2 0 0 0 -.665-1.136 9.558 9.558 0 0 0 -2.288-.7 5.283 5.283 0 0 1 -2.33-.958 2.054 2.054 0 0 1 -.707-1.633 2.308 2.308 0 0 1 .92-1.885 3.8 3.8 0 0 1 2.443-.736 4.169 4.169 0 0 1 2.582.742 2.628 2.628 0 0 1 1.039 2.1h-1.22q-.187-1.717-2.349-1.717a2.844 2.844 0 0 0 -1.62.394 1.212 1.212 0 0 0 -.574 1.046.989.989 0 0 0 .461.891 5.853 5.853 0 0 0 1.723.574 16.258 16.258 0 0 1 2 .549 3.208 3.208 0 0 1 1.271.842 2.166 2.166 0 0 1 .529 1.533 2.526 2.526 0 0 1 -.971 2.027 3.834 3.834 0 0 1 -2.529.802z" fill="#2cbfae"/><g fill="#dbd8dd"><path d="m27.598 46.884h19.286v12.616h-19.286z"/><path d="m51.143 46.884h34.072v1.812h-34.072z"/><path d="m51.143 52.286h34.072v1.812h-34.072z"/><path d="m51.143 57.688h34.072v1.812h-34.072z"/><path d="m27.844 64.424h32.661v1.729h-32.661z"/><path d="m27.844 70.167h32.661v1.729h-32.661z"/><path d="m27.844 75.909h32.661v1.729h-32.661z"/><path d="m27.844 81.652h32.661v1.729h-32.661z"/><path d="m27.844 89.917h57.371v1.729h-57.371z"/><path d="m27.844 95.66h57.371v1.729h-57.371z"/><path d="m63.84 64.424h21.375v18.957h-21.375z"/></g></g></svg>