<?xml version="1.0" encoding="iso-8859-1"?>
<!-- Generator: Adobe Illustrator 19.0.0, SVG Export Plug-In . SVG Version: 6.00 Build 0)  -->
<svg version="1.1" id="Layer_1" xmlns="http://www.w3.org/2000/svg" xmlns:xlink="http://www.w3.org/1999/xlink" x="0px" y="0px"
	 viewBox="0 0 512 512" style="enable-background:new 0 0 512 512;" xml:space="preserve">
<g>
	<circle style="fill:#A0EBFF;" cx="256" cy="256" r="256"/>
	<path style="fill:#335872;" d="M343.66,182.277H299.31v-49.613h7.209V106.04H206.131v26.624h7.209v49.613h-41.559
		c-8.929,0-16.169,7.24-16.169,16.169v218.435h204.211V198.446C359.828,189.517,352.589,182.277,343.66,182.277z"/>
	<path style="fill:#153040;" d="M343.66,182.277H299.31v-49.613h7.209V106.04H256v26.624h-42.655v18.883H256v265.334h103.828
		V198.446C359.828,189.517,352.589,182.277,343.66,182.277z"/>
	<rect x="221.542" y="68.419" style="fill:#D03E00;" width="69.929" height="37.622"/>
	<rect x="256.512" y="68.419" style="fill:#9C2E00;" width="34.964" height="37.622"/>
	<rect x="181.263" y="224.804" style="fill:#C3D63C;" width="149.606" height="152.873"/>
	<rect x="255.59" y="224.804" style="fill:#A5B81E;" width="75.274" height="152.873"/>
	<path style="fill:#335872;" d="M286.587,270.403c0-16.855-13.665-30.525-30.525-30.525c-16.855,0-30.525,13.665-30.525,30.525
		c0,11.387,6.252,21.304,15.493,26.547v18.447h10.097v-9.19h10.189v9.19h10.097v-18.642
		C280.479,291.461,286.587,281.656,286.587,270.403z M234.496,270.403c0-3.825,3.098-6.922,6.922-6.922
		c3.825,0,6.922,3.098,6.922,6.922s-3.098,6.922-6.922,6.922C237.594,277.325,234.496,274.227,234.496,270.403z M269.88,277.325
		c-3.825,0-6.922-3.098-6.922-6.922s3.098-6.922,6.922-6.922s6.922,3.098,6.922,6.922S273.705,277.325,269.88,277.325z"/>
	<path style="fill:#153040;" d="M256.061,239.877v66.335h5.258v9.19h10.097v-18.647c9.062-5.294,15.171-15.099,15.171-26.353
		C286.587,253.548,272.922,239.877,256.061,239.877z M269.88,277.325c-3.825,0-6.922-3.098-6.922-6.922s3.098-6.922,6.922-6.922
		s6.922,3.098,6.922,6.922S273.705,277.325,269.88,277.325z"/>
	<path style="fill:#335872;" d="M293.704,346.839c-2.002,0-3.681,1.147-4.593,2.78l-23.363-13.174l23.429-13.21
		c0.891,1.705,2.621,2.903,4.675,2.903c2.944,0,5.335-2.386,5.335-5.335c0-2.949-2.386-5.335-5.335-5.335l-0.62,0.123
		c0.655-0.886,1.121-1.925,1.121-3.113c0-2.944-2.386-5.335-5.335-5.335c-2.944,0-5.335,2.386-5.335,5.335
		c0,0.932,0.302,1.761,0.717,2.519l-28.344,15.98l-28.344-15.98c0.42-0.763,0.717-1.592,0.717-2.519
		c0-2.944-2.386-5.335-5.335-5.335c-2.944,0-5.335,2.386-5.335,5.335c0,1.188,0.461,2.227,1.121,3.113l-0.62-0.123
		c-2.944,0-5.335,2.386-5.335,5.335s2.386,5.335,5.335,5.335c2.053,0,3.784-1.198,4.675-2.903l23.429,13.21l-23.363,13.174
		c-0.911-1.633-2.591-2.78-4.593-2.78c-2.944,0-5.335,2.386-5.335,5.335c0,2.949,2.386,5.335,5.335,5.335l0.62-0.123
		c-0.655,0.886-1.121,1.925-1.121,3.113c0,2.944,2.386,5.335,5.335,5.335c2.944,0,5.335-2.386,5.335-5.335
		c0-0.983-0.338-1.853-0.804-2.642l28.278-15.944l28.278,15.944c-0.466,0.788-0.804,1.659-0.804,2.642
		c0,2.944,2.386,5.335,5.335,5.335c2.944,0,5.335-2.386,5.335-5.335c0-1.188-0.461-2.227-1.121-3.113l0.62,0.123
		c2.944,0,5.335-2.386,5.335-5.335C299.028,349.225,296.653,346.839,293.704,346.839z"/>
	<path style="fill:#153040;" d="M293.704,346.839c-2.002,0-3.681,1.147-4.593,2.78l-23.363-13.174l23.429-13.21
		c0.891,1.705,2.621,2.903,4.675,2.903c2.944,0,5.335-2.386,5.335-5.335c0-2.949-2.386-5.335-5.335-5.335l-0.62,0.123
		c0.655-0.886,1.121-1.925,1.121-3.113c0-2.944-2.386-5.335-5.335-5.335c-2.944,0-5.335,2.386-5.335,5.335
		c0,0.932,0.302,1.761,0.717,2.519l-28.344,15.98l-0.476-0.266v11.453l0.476-0.266l28.278,15.944
		c-0.466,0.788-0.804,1.659-0.804,2.642c0,2.944,2.386,5.335,5.335,5.335c2.944,0,5.335-2.386,5.335-5.335
		c0-1.188-0.461-2.227-1.121-3.113l0.62,0.123c2.944,0,5.335-2.386,5.335-5.335S296.653,346.839,293.704,346.839z"/>
	<path style="fill:#FDF35A;" d="M294.723,200.817v147.635h105.667V200.817H294.723z M347.556,247.168
		c-8.264,0-14.961-6.697-14.961-14.961c0-8.264,6.697-14.961,14.961-14.961s14.961,6.697,14.961,14.961
		C362.516,240.471,355.82,247.168,347.556,247.168z"/>
	<path style="fill:#F7BF00;" d="M347.556,200.817v16.435c8.264,0,14.961,6.697,14.961,14.961s-6.697,14.961-14.961,14.961v101.284
		h52.833v-147.64H347.556z"/>
	<path style="fill:#D03E00;" d="M348.477,221.998c-2.975,0-5.391-2.412-5.391-5.391c0-29.389-21.018-54.108-49.981-58.783
		c-2.939-0.476-4.936-3.241-4.465-6.18c0.471-2.939,3.246-4.956,6.18-4.465c34.212,5.519,59.044,34.714,59.044,69.422
		C353.869,219.587,351.457,221.998,348.477,221.998z"/>
</g>
<g>
</g>
<g>
</g>
<g>
</g>
<g>
</g>
<g>
</g>
<g>
</g>
<g>
</g>
<g>
</g>
<g>
</g>
<g>
</g>
<g>
</g>
<g>
</g>
<g>
</g>
<g>
</g>
<g>
</g>
</svg>
